<?xml version="1.0" encoding="UTF-8" standalone="no"?>
<!DOCTYPE svg PUBLIC "-//W3C//DTD SVG 1.1//EN" "http://www.w3.org/Graphics/SVG/1.1/DTD/svg11.dtd">
<svg width="100%" height="100%" viewBox="0 0 14044 9934" version="1.1" xmlns="http://www.w3.org/2000/svg" xmlns:xlink="http://www.w3.org/1999/xlink" xml:space="preserve" xmlns:serif="http://www.serif.com/" style="fill-rule:evenodd;clip-rule:evenodd;stroke-linejoin:round;stroke-miterlimit:1.41421;">
    <g transform="matrix(8.08311,0,0,8.08311,-1300.92,3313.53)">
        <path d="M703.691,349.727L650.077,349.727L638.036,383.213L620.634,383.213L669.501,255.244L684.267,255.244L733.222,383.213L715.907,383.213L703.691,349.727ZM655.175,335.928L698.681,335.928L676.884,276.074L655.175,335.928Z" style="fill:rgb(124,124,124);fill-rule:nonzero;"/>
        <path d="M743.945,334.873C743.945,320.283 747.402,308.55 754.316,299.673C761.23,290.796 770.282,286.358 781.474,286.358C792.607,286.358 801.425,290.166 807.929,297.783L807.929,248.213L824.189,248.213L824.189,383.213L809.247,383.213L808.456,373.018C801.952,380.987 792.9,384.971 781.298,384.971C770.282,384.971 761.303,380.459 754.36,371.436C747.416,362.412 743.945,350.635 743.945,336.104L743.945,334.873ZM760.204,336.719C760.204,347.5 762.431,355.938 766.884,362.032C771.337,368.125 777.489,371.172 785.341,371.172C795.654,371.172 803.183,366.543 807.929,357.285L807.929,313.604C803.066,304.639 795.595,300.157 785.517,300.157C777.548,300.157 771.337,303.233 766.884,309.385C762.431,315.537 760.204,324.649 760.204,336.719Z" style="fill:rgb(124,124,124);fill-rule:nonzero;"/>
        <path d="M908.124,383.213C907.187,381.338 906.425,377.998 905.839,373.194C898.281,381.045 889.257,384.971 878.769,384.971C869.394,384.971 861.703,382.32 855.698,377.017C849.692,371.714 846.689,364.99 846.689,356.846C846.689,346.944 850.453,339.253 857.983,333.775C865.512,328.296 876.103,325.557 889.755,325.557L905.575,325.557L905.575,318.086C905.575,312.403 903.876,307.876 900.478,304.507C897.079,301.138 892.07,299.453 885.448,299.453C879.648,299.453 874.784,300.918 870.859,303.848C866.933,306.778 864.97,310.323 864.97,314.483L848.622,314.483C848.622,309.737 850.307,305.152 853.676,300.728C857.045,296.304 861.615,292.803 867.387,290.225C873.158,287.647 879.501,286.358 886.415,286.358C897.372,286.358 905.956,289.097 912.167,294.575C918.378,300.054 921.601,307.598 921.835,317.207L921.835,360.977C921.835,369.707 922.948,376.651 925.175,381.807L925.175,383.213L908.124,383.213ZM881.142,370.821C886.239,370.821 891.073,369.502 895.644,366.865C900.214,364.229 903.525,360.801 905.575,356.582L905.575,337.071L892.831,337.071C872.909,337.071 862.948,342.901 862.948,354.561C862.948,359.658 864.648,363.643 868.046,366.514C871.445,369.385 875.81,370.821 881.142,370.821Z" style="fill:rgb(124,124,124);fill-rule:nonzero;"/>
        <path d="M962.616,288.115L963.056,298.662C970.029,290.459 979.433,286.358 991.269,286.358C1004.57,286.358 1013.62,291.455 1018.43,301.651C1021.59,297.08 1025.71,293.389 1030.78,290.576C1035.84,287.764 1041.84,286.358 1048.75,286.358C1069.61,286.358 1080.21,297.403 1080.57,319.492L1080.57,383.213L1064.31,383.213L1064.31,320.459C1064.31,313.662 1062.75,308.579 1059.65,305.21C1056.54,301.841 1051.33,300.157 1044,300.157C1037.97,300.157 1032.96,301.958 1028.97,305.562C1024.99,309.165 1022.68,314.014 1022.03,320.108L1022.03,383.213L1005.68,383.213L1005.68,320.899C1005.68,307.071 998.915,300.157 985.38,300.157C974.716,300.157 967.421,304.698 963.495,313.78L963.495,383.213L947.236,383.213L947.236,288.115L962.616,288.115Z" style="fill:rgb(124,124,124);fill-rule:nonzero;"/>
        <path d="M1222.86,349.727L1169.25,349.727L1157.21,383.213L1139.8,383.213L1188.67,255.244L1203.44,255.244L1252.39,383.213L1235.08,383.213L1222.86,349.727ZM1174.35,335.928L1217.85,335.928L1196.05,276.074L1174.35,335.928Z" style="fill:rgb(124,124,124);fill-rule:nonzero;"/>
        <path d="M1263.11,334.873C1263.11,320.283 1266.57,308.55 1273.49,299.673C1280.4,290.796 1289.45,286.358 1300.64,286.358C1311.78,286.358 1320.6,290.166 1327.1,297.783L1327.1,248.213L1343.36,248.213L1343.36,383.213L1328.42,383.213L1327.63,373.018C1321.12,380.987 1312.07,384.971 1300.47,384.971C1289.45,384.971 1280.47,380.459 1273.53,371.436C1266.59,362.412 1263.11,350.635 1263.11,336.104L1263.11,334.873ZM1279.37,336.719C1279.37,347.5 1281.6,355.938 1286.05,362.032C1290.51,368.125 1296.66,371.172 1304.51,371.172C1314.82,371.172 1322.35,366.543 1327.1,357.285L1327.1,313.604C1322.24,304.639 1314.77,300.157 1304.69,300.157C1296.72,300.157 1290.51,303.233 1286.05,309.385C1281.6,315.537 1279.37,324.649 1279.37,336.719Z" style="fill:rgb(124,124,124);fill-rule:nonzero;"/>
        <path d="M1427.29,383.213C1426.36,381.338 1425.6,377.998 1425.01,373.194C1417.45,381.045 1408.43,384.971 1397.94,384.971C1388.56,384.971 1380.87,382.32 1374.87,377.017C1368.86,371.714 1365.86,364.99 1365.86,356.846C1365.86,346.944 1369.62,339.253 1377.15,333.775C1384.68,328.296 1395.27,325.557 1408.92,325.557L1424.75,325.557L1424.75,318.086C1424.75,312.403 1423.05,307.876 1419.65,304.507C1416.25,301.138 1411.24,299.453 1404.62,299.453C1398.82,299.453 1393.95,300.918 1390.03,303.848C1386.1,306.778 1384.14,310.323 1384.14,314.483L1367.79,314.483C1367.79,309.737 1369.48,305.152 1372.85,300.728C1376.21,296.304 1380.79,292.803 1386.56,290.225C1392.33,287.647 1398.67,286.358 1405.59,286.358C1416.54,286.358 1425.13,289.097 1431.34,294.575C1437.55,300.054 1440.77,307.598 1441.01,317.207L1441.01,360.977C1441.01,369.707 1442.12,376.651 1444.35,381.807L1444.35,383.213L1427.29,383.213ZM1400.31,370.821C1405.41,370.821 1410.24,369.502 1414.81,366.865C1419.38,364.229 1422.69,360.801 1424.75,356.582L1424.75,337.071L1412,337.071C1392.08,337.071 1382.12,342.901 1382.12,354.561C1382.12,359.658 1383.82,363.643 1387.22,366.514C1390.61,369.385 1394.98,370.821 1400.31,370.821Z" style="fill:rgb(124,124,124);fill-rule:nonzero;"/>
        <path d="M1481.79,288.115L1482.23,298.662C1489.2,290.459 1498.6,286.358 1510.44,286.358C1523.74,286.358 1532.79,291.455 1537.6,301.651C1540.76,297.08 1544.88,293.389 1549.95,290.576C1555.01,287.764 1561.01,286.358 1567.92,286.358C1588.78,286.358 1599.38,297.403 1599.74,319.492L1599.74,383.213L1583.48,383.213L1583.48,320.459C1583.48,313.662 1581.92,308.579 1578.82,305.21C1575.71,301.841 1570.5,300.157 1563.17,300.157C1557.14,300.157 1552.13,301.958 1548.14,305.562C1544.16,309.165 1541.85,314.014 1541.2,320.108L1541.2,383.213L1524.85,383.213L1524.85,320.899C1524.85,307.071 1518.09,300.157 1504.55,300.157C1493.89,300.157 1486.59,304.698 1482.66,313.78L1482.66,383.213L1466.41,383.213L1466.41,288.115L1481.79,288.115Z" style="fill:rgb(124,124,124);fill-rule:nonzero;"/>
        <path d="M1679.63,357.989C1679.63,353.594 1677.97,350.181 1674.66,347.749C1671.35,345.318 1665.58,343.223 1657.35,341.465C1649.12,339.707 1642.58,337.598 1637.75,335.137C1632.91,332.676 1629.34,329.746 1627.03,326.348C1624.71,322.949 1623.55,318.907 1623.55,314.219C1623.55,306.426 1626.85,299.834 1633.44,294.444C1640.03,289.053 1648.46,286.358 1658.71,286.358C1669.49,286.358 1678.24,289.141 1684.95,294.707C1691.65,300.274 1695.01,307.393 1695.01,316.065L1678.66,316.065C1678.66,311.612 1676.77,307.774 1672.99,304.551C1669.21,301.328 1664.45,299.717 1658.71,299.717C1652.79,299.717 1648.16,301.006 1644.82,303.584C1641.48,306.162 1639.81,309.532 1639.81,313.692C1639.81,317.617 1641.37,320.576 1644.47,322.569C1647.58,324.561 1653.19,326.465 1661.3,328.282C1669.42,330.098 1676,332.266 1681.03,334.785C1686.07,337.305 1689.81,340.337 1692.24,343.882C1694.67,347.427 1695.89,351.748 1695.89,356.846C1695.89,365.342 1692.49,372.154 1685.69,377.281C1678.9,382.407 1670.08,384.971 1659.24,384.971C1651.62,384.971 1644.88,383.623 1639.02,380.928C1633.16,378.233 1628.58,374.468 1625.27,369.634C1621.96,364.8 1620.3,359.571 1620.3,353.946L1636.56,353.946C1636.86,359.395 1639.04,363.716 1643.11,366.909C1647.18,370.103 1652.56,371.699 1659.24,371.699C1665.39,371.699 1670.33,370.454 1674.05,367.964C1677.77,365.474 1679.63,362.149 1679.63,357.989Z" style="fill:rgb(124,124,124);fill-rule:nonzero;"/>
        <path d="M1743.61,339.18L1733.42,349.815L1733.42,383.213L1717.16,383.213L1717.16,248.213L1733.42,248.213L1733.42,329.864L1742.12,319.405L1771.74,288.115L1791.51,288.115L1754.51,327.842L1795.82,383.213L1776.75,383.213L1743.61,339.18Z" style="fill:rgb(124,124,124);fill-rule:nonzero;"/>
        <path d="M1825.97,383.213L1809.71,383.213L1809.71,288.115L1825.97,288.115L1825.97,383.213ZM1808.39,262.891C1808.39,260.254 1809.19,258.028 1810.81,256.211C1812.42,254.395 1814.8,253.487 1817.97,253.487C1821.13,253.487 1823.53,254.395 1825.17,256.211C1826.82,258.028 1827.64,260.254 1827.64,262.891C1827.64,265.528 1826.82,267.725 1825.17,269.483C1823.53,271.24 1821.13,272.119 1817.97,272.119C1814.8,272.119 1812.42,271.24 1810.81,269.483C1809.19,267.725 1808.39,265.528 1808.39,262.891Z" style="fill:rgb(124,124,124);fill-rule:nonzero;"/>
    </g>
    <g transform="matrix(8.08311,0,0,8.08311,-1281.61,1763.77)">
        <path d="M700.527,359.307L658.251,359.307L650.868,383.213L617.909,383.213L664.843,255.244L693.847,255.244L741.132,383.213L707.997,383.213L700.527,359.307ZM665.634,335.489L693.144,335.489L679.345,291.104L665.634,335.489Z" style="fill-rule:nonzero;"/>
        <path d="M750.448,383.213L750.448,255.244L791.669,255.244C802.978,255.244 813.144,257.808 822.167,262.935C831.191,268.062 838.237,275.298 843.305,284.644C848.373,293.99 850.937,304.463 850.995,316.065L850.995,321.953C850.995,333.672 848.52,344.175 843.569,353.462C838.617,362.749 831.645,370.015 822.651,375.259C813.656,380.503 803.622,383.155 792.548,383.213L750.448,383.213ZM781.298,279.063L781.298,359.483L792.021,359.483C800.868,359.483 807.665,356.333 812.411,350.034C817.157,343.736 819.531,334.375 819.531,321.953L819.531,316.416C819.531,304.053 817.157,294.737 812.411,288.467C807.665,282.198 800.751,279.063 791.669,279.063L781.298,279.063Z" style="fill-rule:nonzero;"/>
        <rect x="870.507" y="316.592" width="52.822" height="22.852" style="fill-rule:nonzero;"/>
        <path d="M947.763,383.213L947.763,255.244L993.73,255.244C1010.2,255.244 1022.72,258.262 1031.3,264.297C1039.89,270.332 1044.18,279.092 1044.18,290.576C1044.18,297.198 1042.66,302.852 1039.61,307.539C1036.56,312.227 1032.08,315.684 1026.16,317.91C1032.84,319.668 1037.97,322.949 1041.54,327.754C1045.12,332.559 1046.9,338.418 1046.9,345.332C1046.9,357.871 1042.93,367.29 1034.99,373.589C1027.06,379.888 1015.29,383.096 999.706,383.213L947.763,383.213ZM978.613,328.809L978.613,359.483L998.827,359.483C1004.39,359.483 1008.67,358.208 1011.66,355.659C1014.65,353.111 1016.14,349.522 1016.14,344.893C1016.14,334.229 1010.84,328.867 1000.23,328.809L978.613,328.809ZM978.613,308.594L994.697,308.594C1001.44,308.535 1006.24,307.301 1009.11,304.892C1011.98,302.482 1013.42,298.926 1013.42,294.225C1013.42,288.818 1011.86,284.925 1008.76,282.545C1005.65,280.165 1000.64,278.975 993.73,278.975L978.613,278.975L978.613,308.594Z" style="fill-rule:nonzero;"/>
        <path d="M1164.24,255.244L1164.24,339.004C1164.24,348.496 1162.22,356.714 1158.17,363.657C1154.13,370.601 1148.33,375.889 1140.77,379.522C1133.21,383.155 1124.28,384.971 1113.96,384.971C1098.38,384.971 1086.1,380.928 1077.14,372.842C1068.17,364.756 1063.6,353.682 1063.43,339.619L1063.43,255.244L1094.45,255.244L1094.45,340.235C1094.8,354.239 1101.31,361.24 1113.96,361.24C1120.35,361.24 1125.18,359.483 1128.47,355.967C1131.75,352.451 1133.39,346.739 1133.39,338.828L1133.39,255.244L1164.24,255.244Z" style="fill-rule:nonzero;"/>
        <path d="M1183.49,383.213L1183.49,255.244L1224.71,255.244C1236.02,255.244 1246.18,257.808 1255.2,262.935C1264.23,268.062 1271.27,275.298 1276.34,284.644C1281.41,293.99 1283.97,304.463 1284.03,316.065L1284.03,321.953C1284.03,333.672 1281.56,344.175 1276.61,353.462C1271.65,362.749 1264.68,370.015 1255.69,375.259C1246.69,380.503 1236.66,383.155 1225.59,383.213L1183.49,383.213ZM1214.34,279.063L1214.34,359.483L1225.06,359.483C1233.91,359.483 1240.7,356.333 1245.45,350.034C1250.19,343.736 1252.57,334.375 1252.57,321.953L1252.57,316.416C1252.57,304.053 1250.19,294.737 1245.45,288.467C1240.7,282.198 1233.79,279.063 1224.71,279.063L1214.34,279.063Z" style="fill-rule:nonzero;"/>
    </g>
    <g transform="matrix(-8.08311,0,0,8.08311,4751.79,720.574)">
        <path d="M480,680L216,680L216,524L352,416L488,528L488,576L512,576L512,514.03L352,384.303L192,512L192,704L512,704L512,680L480,680L480,680Z" style="fill:rgb(124,124,124);"/>
    </g>
</svg>
