<?xml version="1.0" encoding="UTF-8" standalone="no"?><!DOCTYPE svg PUBLIC "-//W3C//DTD SVG 1.1//EN" "http://www.w3.org/Graphics/SVG/1.1/DTD/svg11.dtd"><svg width="100%" height="100%" viewBox="0 0 500 101" version="1.1" xmlns="http://www.w3.org/2000/svg" xmlns:xlink="http://www.w3.org/1999/xlink" xml:space="preserve" xmlns:serif="http://www.serif.com/" style="fill-rule:evenodd;clip-rule:evenodd;stroke-linejoin:round;stroke-miterlimit:1.41421;"><path d="M146.741,89.94l-16.851,0l-3.784,10.524l-5.469,0l15.358,-40.22l4.641,0l15.387,40.22l-5.442,0l-3.84,-10.524Zm-15.248,-4.337l13.674,0l-6.851,-18.813l-6.823,18.813Z" style="fill:#7c7c7c;fill-rule:nonzero;"/><path d="M159.393,85.271c0,-4.586 1.087,-8.273 3.26,-11.063c2.173,-2.79 5.018,-4.185 8.536,-4.185c3.499,0 6.27,1.197 8.315,3.591l0,-15.58l5.11,0l0,42.43l-4.696,0l-0.249,-3.204c-2.044,2.505 -4.889,3.757 -8.536,3.757c-3.462,0 -6.284,-1.418 -8.466,-4.254c-2.183,-2.836 -3.274,-6.538 -3.274,-11.105l0,-0.387Zm5.111,0.58c0,3.389 0.699,6.041 2.099,7.956c1.4,1.915 3.333,2.873 5.801,2.873c3.242,0 5.608,-1.455 7.1,-4.365l0,-13.729c-1.529,-2.818 -3.877,-4.226 -7.045,-4.226c-2.504,0 -4.456,0.967 -5.856,2.9c-1.4,1.934 -2.099,4.798 -2.099,8.591Z" style="fill:#7c7c7c;fill-rule:nonzero;"/><path d="M210.995,100.464c-0.295,-0.589 -0.534,-1.639 -0.718,-3.149c-2.376,2.468 -5.212,3.702 -8.508,3.702c-2.947,0 -5.364,-0.833 -7.252,-2.5c-1.887,-1.667 -2.831,-3.78 -2.831,-6.34c0,-3.112 1.183,-5.529 3.55,-7.251c2.366,-1.722 5.695,-2.583 9.986,-2.583l4.972,0l0,-2.348c0,-1.786 -0.534,-3.209 -1.602,-4.268c-1.068,-1.059 -2.643,-1.589 -4.724,-1.589c-1.823,0 -3.352,0.461 -4.585,1.382c-1.234,0.921 -1.851,2.035 -1.851,3.342l-5.139,0c0,-1.491 0.53,-2.932 1.589,-4.323c1.059,-1.39 2.495,-2.491 4.309,-3.301c1.814,-0.81 3.808,-1.215 5.981,-1.215c3.444,0 6.142,0.861 8.094,2.582c1.952,1.722 2.965,4.093 3.038,7.114l0,13.757c0,2.743 0.35,4.926 1.05,6.546l0,0.442l-5.359,0Zm-8.481,-3.894c1.602,0 3.122,-0.415 4.558,-1.244c1.437,-0.828 2.477,-1.906 3.122,-3.232l0,-6.132l-4.006,0c-6.261,0 -9.392,1.832 -9.392,5.497c0,1.602 0.534,2.854 1.602,3.757c1.069,0.902 2.441,1.354 4.116,1.354Z" style="fill:#7c7c7c;fill-rule:nonzero;"/><path d="M228.122,70.575l0.138,3.315c2.192,-2.578 5.147,-3.867 8.868,-3.867c4.18,0 7.024,1.602 8.536,4.806c0.993,-1.436 2.288,-2.596 3.882,-3.481c1.59,-0.883 3.476,-1.325 5.648,-1.325c6.556,0 9.888,3.471 10.001,10.414l0,20.027l-5.111,0l0,-19.723c0,-2.137 -0.49,-3.734 -1.464,-4.793c-0.978,-1.059 -2.615,-1.588 -4.919,-1.588c-1.895,0 -3.47,0.566 -4.724,1.699c-1.251,1.132 -1.977,2.656 -2.181,4.571l0,19.834l-5.139,0l0,-19.585c0,-4.346 -2.126,-6.519 -6.38,-6.519c-3.352,0 -5.645,1.427 -6.879,4.281l0,21.823l-5.11,0l0,-29.889l4.834,0Z" style="fill:#7c7c7c;fill-rule:nonzero;"/><path d="M309.917,89.94l-16.85,0l-3.784,10.524l-5.472,0l15.36,-40.22l4.642,0l15.385,40.22l-5.44,0l-3.841,-10.524Zm-15.247,-4.337l13.672,0l-6.852,-18.813l-6.82,18.813Z" style="fill:#7c7c7c;fill-rule:nonzero;"/><path d="M322.568,85.271c0,-4.586 1.087,-8.273 3.262,-11.063c2.172,-2.79 5.016,-4.185 8.533,-4.185c3.502,0 6.274,1.197 8.317,3.591l0,-15.58l5.11,0l0,42.43l-4.695,0l-0.249,-3.204c-2.046,2.505 -4.89,3.757 -8.536,3.757c-3.464,0 -6.286,-1.418 -8.467,-4.254c-2.182,-2.836 -3.275,-6.538 -3.275,-11.105l0,-0.387Zm5.11,0.58c0,3.389 0.701,6.041 2.1,7.956c1.401,1.915 3.334,2.873 5.802,2.873c3.24,0 5.607,-1.455 7.1,-4.365l0,-13.729c-1.528,-2.818 -3.876,-4.226 -7.044,-4.226c-2.505,0 -4.457,0.967 -5.858,2.9c-1.399,1.934 -2.1,4.798 -2.1,8.591Z" style="fill:#7c7c7c;fill-rule:nonzero;"/><path d="M374.169,100.464c-0.292,-0.589 -0.531,-1.639 -0.716,-3.149c-2.376,2.468 -5.211,3.702 -8.508,3.702c-2.948,0 -5.365,-0.833 -7.251,-2.5c-1.889,-1.667 -2.832,-3.78 -2.832,-6.34c0,-3.112 1.182,-5.529 3.548,-7.251c2.367,-1.722 5.696,-2.583 9.986,-2.583l4.975,0l0,-2.348c0,-1.786 -0.534,-3.209 -1.603,-4.268c-1.068,-1.059 -2.643,-1.589 -4.724,-1.589c-1.823,0 -3.353,0.461 -4.585,1.382c-1.236,0.921 -1.852,2.035 -1.852,3.342l-5.138,0c0,-1.491 0.531,-2.932 1.59,-4.323c1.056,-1.39 2.495,-2.491 4.309,-3.301c1.814,-0.81 3.806,-1.215 5.981,-1.215c3.442,0 6.142,0.861 8.093,2.582c1.952,1.722 2.964,4.093 3.04,7.114l0,13.757c0,2.743 0.349,4.926 1.049,6.546l0,0.442l-5.362,0Zm-8.479,-3.894c1.603,0 3.121,-0.415 4.557,-1.244c1.436,-0.828 2.477,-1.906 3.124,-3.232l0,-6.132l-4.007,0c-6.261,0 -9.391,1.832 -9.391,5.497c0,1.602 0.534,2.854 1.602,3.757c1.066,0.902 2.439,1.354 4.115,1.354Z" style="fill:#7c7c7c;fill-rule:nonzero;"/><path d="M391.299,70.575l0.138,3.315c2.191,-2.578 5.145,-3.867 8.867,-3.867c4.18,0 7.024,1.602 8.536,4.806c0.993,-1.436 2.288,-2.596 3.882,-3.481c1.59,-0.883 3.476,-1.325 5.648,-1.325c6.556,0 9.888,3.471 10.001,10.414l0,20.027l-5.111,0l0,-19.723c0,-2.137 -0.49,-3.734 -1.464,-4.793c-0.978,-1.059 -2.615,-1.588 -4.919,-1.588c-1.895,0 -3.47,0.566 -4.724,1.699c-1.251,1.132 -1.977,2.656 -2.181,4.571l0,19.834l-5.139,0l0,-19.585c0,-4.346 -2.125,-6.519 -6.381,-6.519c-3.35,0 -5.644,1.427 -6.88,4.281l0,21.823l-5.107,0l0,-29.889l4.834,0Z" style="fill:#7c7c7c;fill-rule:nonzero;"/><path d="M453.48,92.536c0,-1.381 -0.521,-2.454 -1.562,-3.218c-1.04,-0.764 -2.854,-1.423 -5.44,-1.975c-2.587,-0.553 -4.643,-1.216 -6.161,-1.989c-1.521,-0.774 -2.643,-1.694 -3.369,-2.762c-0.729,-1.069 -1.094,-2.339 -1.094,-3.813c0,-2.449 1.037,-4.521 3.109,-6.215c2.071,-1.694 4.721,-2.541 7.942,-2.541c3.388,0 6.138,0.874 8.247,2.624c2.106,1.75 3.162,3.987 3.162,6.713l-5.139,0c0,-1.4 -0.594,-2.606 -1.782,-3.619c-1.188,-1.013 -2.684,-1.52 -4.488,-1.52c-1.861,0 -3.316,0.406 -4.366,1.216c-1.049,0.81 -1.574,1.869 -1.574,3.177c0,1.233 0.49,2.163 1.464,2.79c0.978,0.626 2.741,1.224 5.29,1.795c2.552,0.571 4.62,1.253 6.201,2.044c1.584,0.792 2.76,1.745 3.524,2.86c0.763,1.114 1.147,2.472 1.147,4.074c0,2.67 -1.069,4.811 -3.206,6.423c-2.134,1.611 -4.906,2.417 -8.313,2.417c-2.395,0 -4.514,-0.424 -6.356,-1.271c-1.841,-0.847 -3.281,-2.03 -4.321,-3.55c-1.04,-1.519 -1.562,-3.162 -1.562,-4.93l5.11,0c0.095,1.712 0.78,3.07 2.059,4.074c1.279,1.004 2.97,1.505 5.07,1.505c1.933,0 3.485,-0.391 4.654,-1.173c1.17,-0.783 1.754,-1.828 1.754,-3.136Z" style="fill:#7c7c7c;fill-rule:nonzero;"/><path d="M473.589,86.625l-3.202,3.342l0,10.497l-5.111,0l0,-42.43l5.111,0l0,25.663l2.734,-3.288l9.31,-9.834l6.213,0l-11.629,12.486l12.984,17.403l-5.994,0l-10.416,-13.839Z" style="fill:#7c7c7c;fill-rule:nonzero;"/><path d="M499.475,100.464l-5.11,0l0,-29.889l5.11,0l0,29.889Zm-5.525,-37.817c0,-0.829 0.251,-1.528 0.76,-2.1c0.506,-0.57 1.254,-0.856 2.251,-0.856c0.993,0 1.747,0.286 2.263,0.856c0.518,0.572 0.776,1.271 0.776,2.1c0,0.829 -0.258,1.519 -0.776,2.072c-0.516,0.552 -1.27,0.828 -2.263,0.828c-0.997,0 -1.745,-0.276 -2.251,-0.828c-0.509,-0.553 -0.76,-1.243 -0.76,-2.072Z" style="fill:#7c7c7c;fill-rule:nonzero;"/><path d="M146.498,32.69l-13.288,0l-2.32,7.514l-10.359,0l14.751,-40.221l9.116,0l14.862,40.221l-10.414,0l-2.348,-7.514Zm-10.967,-7.486l8.646,0l-4.337,-13.95l-4.309,13.95Z" style="fill-rule:nonzero;"/><path d="M162.188,40.204l0,-40.221l12.956,0c3.554,0 6.749,0.806 9.585,2.417c2.837,1.612 5.051,3.886 6.644,6.824c1.593,2.937 2.399,6.229 2.417,9.875l0,1.851c0,3.683 -0.778,6.984 -2.334,9.903c-1.556,2.919 -3.748,5.203 -6.574,6.851c-2.828,1.648 -5.981,2.482 -9.462,2.5l-13.232,0Zm9.696,-32.735l0,25.277l3.37,0c2.781,0 4.917,-0.99 6.409,-2.97c1.492,-1.98 2.238,-4.922 2.238,-8.826l0,-1.74c0,-3.886 -0.746,-6.814 -2.238,-8.785c-1.492,-1.97 -3.665,-2.956 -6.519,-2.956l-3.26,0Z" style="fill-rule:nonzero;"/><rect x="199.923" y="19.265" width="16.602" height="7.182"/><path d="M224.204,40.204l0,-40.221l14.448,0c5.176,0 9.111,0.949 11.808,2.845c2.7,1.897 4.048,4.651 4.048,8.26c0,2.081 -0.477,3.858 -1.436,5.332c-0.959,1.473 -2.367,2.559 -4.227,3.259c2.099,0.553 3.712,1.584 4.834,3.094c1.125,1.51 1.684,3.352 1.684,5.525c0,3.941 -1.247,6.901 -3.743,8.881c-2.492,1.98 -6.192,2.988 -11.09,3.025l-16.326,0Zm9.697,-17.099l0,9.641l6.353,0c1.748,0 3.094,-0.401 4.033,-1.202c0.94,-0.801 1.408,-1.929 1.408,-3.384c0,-3.352 -1.665,-5.037 -5,-5.055l-6.794,0Zm0,-6.354l5.055,0c2.119,-0.018 3.628,-0.406 4.53,-1.163c0.902,-0.758 1.354,-1.876 1.354,-3.353c0,-1.7 -0.49,-2.923 -1.464,-3.671c-0.978,-0.748 -2.552,-1.122 -4.724,-1.122l-4.751,0l0,9.309Z" style="fill-rule:nonzero;"/><path d="M292.243,-0.017l0,26.326c0,2.983 -0.634,5.566 -1.907,7.748c-1.27,2.183 -3.093,3.845 -5.469,4.987c-2.376,1.142 -5.183,1.712 -8.427,1.712c-4.896,0 -8.756,-1.27 -11.572,-3.812c-2.82,-2.541 -4.256,-6.022 -4.309,-10.442l0,-26.519l9.749,0l0,26.713c0.11,4.401 2.156,6.602 6.132,6.602c2.009,0 3.527,-0.552 4.561,-1.658c1.031,-1.105 1.546,-2.9 1.546,-5.386l0,-26.271l9.696,0Z" style="fill-rule:nonzero;"/><path d="M298.294,40.204l0,-40.221l12.955,0c3.555,0 6.748,0.806 9.583,2.417c2.838,1.612 5.051,3.886 6.645,6.824c1.593,2.937 2.398,6.229 2.417,9.875l0,1.851c0,3.683 -0.777,6.984 -2.333,9.903c-1.559,2.919 -3.749,5.203 -6.575,6.851c-2.828,1.648 -5.981,2.482 -9.46,2.5l-13.232,0Zm9.696,-32.735l0,25.277l3.369,0c2.782,0 4.916,-0.99 6.409,-2.97c1.49,-1.98 2.238,-4.922 2.238,-8.826l0,-1.74c0,-3.886 -0.748,-6.814 -2.238,-8.785c-1.493,-1.97 -3.665,-2.956 -6.519,-2.956l-3.259,0Z" style="fill-rule:nonzero;"/><path d="M10.058,92.921l82.975,0l0,-49.031l-42.745,-33.944l-42.745,35.201l0,15.087l-7.543,0l0,-19.477l50.288,-40.774l50.288,40.136l0,60.345l-100.576,0l0,-7.543l10.058,0Z" style="fill:#7c7c7c;"/></svg>